<svg xmlns="http://www.w3.org/2000/svg" xmlns:xlink="http://www.w3.org/1999/xlink" width="2000" zoomAndPan="magnify" viewBox="0 0 1500 1499.999933" height="2000" preserveAspectRatio="xMidYMid meet" version="1.0"><defs><g/><clipPath id="5bc087b970"><rect x="0" width="559" y="0" height="512"/></clipPath><clipPath id="b84ad9be61"><path d="M 933 760.503906 L 1250.191406 760.503906 L 1250.191406 972.753906 L 933 972.753906 Z M 933 760.503906 " clip-rule="nonzero"/></clipPath><clipPath id="b7bb3af47d"><rect x="0" width="531" y="0" height="511"/></clipPath></defs><g transform="matrix(1, 0, 0, 1, 240, 534)"><g clip-path="url(#5bc087b970)"><g fill="#5e17eb" fill-opacity="1"><g transform="translate(0.968144, 423.709333)"><g><path d="M 24.359375 -6.609375 L 24.359375 -319.03125 C 24.359375 -323.4375 26.5625 -325.640625 30.96875 -325.640625 L 205.609375 -325.640625 C 210.015625 -325.640625 212.21875 -323.4375 212.21875 -319.03125 L 212.21875 -311.375 C 212.21875 -306.96875 214.421875 -304.765625 218.828125 -304.765625 L 226.484375 -304.765625 C 230.890625 -304.765625 233.09375 -302.5625 233.09375 -298.15625 L 233.09375 -290.5 C 233.09375 -286.09375 235.296875 -283.890625 239.703125 -283.890625 L 247.359375 -283.890625 C 251.765625 -283.890625 253.96875 -281.6875 253.96875 -277.28125 L 253.96875 -48.359375 C 253.96875 -43.953125 251.765625 -41.75 247.359375 -41.75 L 239.703125 -41.75 C 235.296875 -41.75 233.09375 -39.546875 233.09375 -35.140625 L 233.09375 -27.484375 C 233.09375 -23.078125 230.890625 -20.875 226.484375 -20.875 L 218.828125 -20.875 C 214.421875 -20.875 212.21875 -18.671875 212.21875 -14.265625 L 212.21875 -6.609375 C 212.21875 -2.203125 210.015625 0 205.609375 0 L 30.96875 0 C 26.5625 0 24.359375 -2.203125 24.359375 -6.609375 Z M 118.28125 -298.15625 L 118.28125 -27.484375 C 118.28125 -23.078125 120.484375 -20.875 124.890625 -20.875 L 132.546875 -20.875 C 136.953125 -20.875 139.15625 -23.078125 139.15625 -27.484375 L 139.15625 -35.140625 C 139.15625 -39.546875 141.359375 -41.75 145.765625 -41.75 L 153.421875 -41.75 C 157.828125 -41.75 160.03125 -43.953125 160.03125 -48.359375 L 160.03125 -277.28125 C 160.03125 -281.6875 157.828125 -283.890625 153.421875 -283.890625 L 145.765625 -283.890625 C 141.359375 -283.890625 139.15625 -286.09375 139.15625 -290.5 L 139.15625 -298.15625 C 139.15625 -302.5625 136.953125 -304.765625 132.546875 -304.765625 L 124.890625 -304.765625 C 120.484375 -304.765625 118.28125 -302.5625 118.28125 -298.15625 Z M 118.28125 -298.15625 "/></g></g></g><g fill="#5e17eb" fill-opacity="1"><g transform="translate(279.298015, 423.709333)"><g><path d="M 66.109375 -6.609375 L 66.109375 -14.265625 C 66.109375 -18.671875 63.898438 -20.875 59.484375 -20.875 L 51.84375 -20.875 C 47.4375 -20.875 45.234375 -23.078125 45.234375 -27.484375 L 45.234375 -35.140625 C 45.234375 -39.546875 43.03125 -41.75 38.625 -41.75 L 30.96875 -41.75 C 26.5625 -41.75 24.359375 -43.953125 24.359375 -48.359375 L 24.359375 -195.171875 C 24.359375 -199.578125 26.5625 -201.78125 30.96875 -201.78125 L 38.625 -201.78125 C 43.03125 -201.78125 45.234375 -203.984375 45.234375 -208.390625 L 45.234375 -216.046875 C 45.234375 -220.453125 47.4375 -222.65625 51.84375 -222.65625 L 59.484375 -222.65625 C 63.898438 -222.65625 66.109375 -224.859375 66.109375 -229.265625 L 66.109375 -236.921875 C 66.109375 -241.328125 68.3125 -243.53125 72.71875 -243.53125 L 205.609375 -243.53125 C 210.015625 -243.53125 212.21875 -241.328125 212.21875 -236.921875 L 212.21875 -229.265625 C 212.21875 -224.859375 214.421875 -222.65625 218.828125 -222.65625 L 226.484375 -222.65625 C 230.890625 -222.65625 233.09375 -220.453125 233.09375 -216.046875 L 233.09375 -208.390625 C 233.09375 -203.984375 235.296875 -201.78125 239.703125 -201.78125 L 247.359375 -201.78125 C 251.765625 -201.78125 253.96875 -199.578125 253.96875 -195.171875 L 253.96875 -48.359375 C 253.96875 -43.953125 251.765625 -41.75 247.359375 -41.75 L 239.703125 -41.75 C 235.296875 -41.75 233.09375 -39.546875 233.09375 -35.140625 L 233.09375 -27.484375 C 233.09375 -23.078125 230.890625 -20.875 226.484375 -20.875 L 218.828125 -20.875 C 214.421875 -20.875 212.21875 -18.671875 212.21875 -14.265625 L 212.21875 -6.609375 C 212.21875 -2.203125 210.015625 0 205.609375 0 L 72.71875 0 C 68.3125 0 66.109375 -2.203125 66.109375 -6.609375 Z M 145.765625 -41.75 L 153.421875 -41.75 C 157.828125 -41.75 160.03125 -43.953125 160.03125 -48.359375 L 160.03125 -216.046875 C 160.03125 -220.453125 157.828125 -222.65625 153.421875 -222.65625 L 145.765625 -222.65625 C 141.359375 -222.65625 139.15625 -220.453125 139.15625 -216.046875 L 139.15625 -208.390625 C 139.15625 -203.984375 136.953125 -201.78125 132.546875 -201.78125 L 124.890625 -201.78125 C 120.484375 -201.78125 118.28125 -199.578125 118.28125 -195.171875 L 118.28125 -27.484375 C 118.28125 -23.078125 120.484375 -20.875 124.890625 -20.875 L 132.546875 -20.875 C 136.953125 -20.875 139.15625 -23.078125 139.15625 -27.484375 L 139.15625 -35.140625 C 139.15625 -39.546875 141.359375 -41.75 145.765625 -41.75 Z M 145.765625 -41.75 "/></g></g></g></g></g><g fill="#ab92db" fill-opacity="1"><g transform="translate(231.889511, 1360.832503)"><g><path d="M 45.234375 -6.609375 L 45.234375 -14.265625 C 45.234375 -18.671875 43.03125 -20.875 38.625 -20.875 L 30.96875 -20.875 C 26.5625 -20.875 24.359375 -23.078125 24.359375 -27.484375 L 24.359375 -319.046875 C 24.359375 -323.453125 26.5625 -325.65625 30.96875 -325.65625 L 111.6875 -325.65625 C 116.09375 -325.65625 118.296875 -323.453125 118.296875 -319.046875 L 118.296875 -27.484375 C 118.296875 -23.078125 120.5 -20.875 124.90625 -20.875 L 135 -20.875 C 139.40625 -20.875 141.609375 -23.078125 141.609375 -27.484375 L 141.609375 -35.140625 C 141.609375 -39.546875 143.8125 -41.75 148.21875 -41.75 L 155.875 -41.75 C 160.28125 -41.75 162.484375 -43.953125 162.484375 -48.359375 L 162.484375 -319.046875 C 162.484375 -323.453125 164.6875 -325.65625 169.09375 -325.65625 L 249.8125 -325.65625 C 254.21875 -325.65625 256.421875 -323.453125 256.421875 -319.046875 L 256.421875 -27.484375 C 256.421875 -23.078125 258.625 -20.875 263.03125 -20.875 L 273.125 -20.875 C 277.53125 -20.875 279.734375 -23.078125 279.734375 -27.484375 L 279.734375 -35.140625 C 279.734375 -39.546875 281.9375 -41.75 286.34375 -41.75 L 294 -41.75 C 298.40625 -41.75 300.609375 -43.953125 300.609375 -48.359375 L 300.609375 -319.046875 C 300.609375 -323.453125 302.8125 -325.65625 307.21875 -325.65625 L 387.9375 -325.65625 C 392.34375 -325.65625 394.546875 -323.453125 394.546875 -319.046875 L 394.546875 -90.109375 C 394.546875 -85.703125 392.34375 -83.5 387.9375 -83.5 L 380.28125 -83.5 C 375.875 -83.5 373.671875 -81.296875 373.671875 -76.890625 L 373.671875 -69.234375 C 373.671875 -64.828125 371.46875 -62.625 367.0625 -62.625 L 348.96875 -62.625 C 344.5625 -62.625 342.359375 -60.421875 342.359375 -56.015625 L 342.359375 -48.359375 C 342.359375 -43.953125 340.15625 -41.75 335.75 -41.75 L 328.09375 -41.75 C 323.6875 -41.75 321.484375 -39.546875 321.484375 -35.140625 L 321.484375 -27.484375 C 321.484375 -23.078125 319.28125 -20.875 314.875 -20.875 L 311.390625 -20.875 C 306.984375 -20.875 304.78125 -18.671875 304.78125 -14.265625 L 304.78125 -6.609375 C 304.78125 -2.203125 302.578125 0 298.171875 0 L 231.71875 0 C 227.3125 0 225.109375 -2.203125 225.109375 -6.609375 L 225.109375 -14.265625 C 225.109375 -18.671875 222.90625 -20.875 218.5 -20.875 L 210.84375 -20.875 C 206.4375 -20.875 204.234375 -23.078125 204.234375 -27.484375 L 204.234375 -35.140625 C 204.234375 -39.546875 202.03125 -41.75 197.625 -41.75 L 189.96875 -41.75 C 185.5625 -41.75 183.359375 -39.546875 183.359375 -35.140625 L 183.359375 -27.484375 C 183.359375 -23.078125 181.15625 -20.875 176.75 -20.875 L 169.09375 -20.875 C 164.6875 -20.875 162.484375 -18.671875 162.484375 -14.265625 L 162.484375 -6.609375 C 162.484375 -2.203125 160.28125 0 155.875 0 L 51.84375 0 C 47.4375 0 45.234375 -2.203125 45.234375 -6.609375 Z M 45.234375 -6.609375 "/></g></g></g><g fill="#ab92db" fill-opacity="1"><g transform="translate(647.302228, 1360.832503)"><g><path d="M 66.109375 -6.609375 L 66.109375 -14.265625 C 66.109375 -18.671875 63.90625 -20.875 59.5 -20.875 L 51.84375 -20.875 C 47.4375 -20.875 45.234375 -23.078125 45.234375 -27.484375 L 45.234375 -35.140625 C 45.234375 -39.546875 43.03125 -41.75 38.625 -41.75 L 30.96875 -41.75 C 26.5625 -41.75 24.359375 -43.953125 24.359375 -48.359375 L 24.359375 -195.1875 C 24.359375 -199.59375 26.5625 -201.796875 30.96875 -201.796875 L 38.625 -201.796875 C 43.03125 -201.796875 45.234375 -204 45.234375 -208.40625 L 45.234375 -216.0625 C 45.234375 -220.46875 47.4375 -222.671875 51.84375 -222.671875 L 59.5 -222.671875 C 63.90625 -222.671875 66.109375 -224.875 66.109375 -229.28125 L 66.109375 -236.9375 C 66.109375 -241.34375 68.3125 -243.546875 72.71875 -243.546875 L 205.625 -243.546875 C 210.03125 -243.546875 212.234375 -241.34375 212.234375 -236.9375 L 212.234375 -229.28125 C 212.234375 -224.875 214.4375 -222.671875 218.84375 -222.671875 L 226.5 -222.671875 C 230.90625 -222.671875 233.109375 -220.46875 233.109375 -216.0625 L 233.109375 -208.40625 C 233.109375 -204 235.3125 -201.796875 239.71875 -201.796875 L 247.375 -201.796875 C 251.78125 -201.796875 253.984375 -199.59375 253.984375 -195.1875 L 253.984375 -138.828125 C 253.984375 -134.410156 251.78125 -132.203125 247.375 -132.203125 L 239.71875 -132.203125 C 235.3125 -132.203125 233.109375 -130 233.109375 -125.59375 L 233.109375 -117.953125 C 233.109375 -113.535156 230.90625 -111.328125 226.5 -111.328125 L 124.90625 -111.328125 C 120.5 -111.328125 118.296875 -109.125 118.296875 -104.71875 L 118.296875 -27.484375 C 118.296875 -23.078125 120.5 -20.875 124.90625 -20.875 L 132.5625 -20.875 C 136.96875 -20.875 139.171875 -23.078125 139.171875 -27.484375 L 139.171875 -35.140625 C 139.171875 -39.546875 141.375 -41.75 145.78125 -41.75 L 153.4375 -41.75 C 157.84375 -41.75 160.046875 -43.953125 160.046875 -48.359375 L 160.046875 -72.375 C 160.046875 -76.78125 162.25 -78.984375 166.65625 -78.984375 L 247.375 -78.984375 C 251.78125 -78.984375 253.984375 -76.78125 253.984375 -72.375 L 253.984375 -48.359375 C 253.984375 -43.953125 251.78125 -41.75 247.375 -41.75 L 239.71875 -41.75 C 235.3125 -41.75 233.109375 -39.546875 233.109375 -35.140625 L 233.109375 -27.484375 C 233.109375 -23.078125 230.90625 -20.875 226.5 -20.875 L 218.84375 -20.875 C 214.4375 -20.875 212.234375 -18.671875 212.234375 -14.265625 L 212.234375 -6.609375 C 212.234375 -2.203125 210.03125 0 205.625 0 L 72.71875 0 C 68.3125 0 66.109375 -2.203125 66.109375 -6.609375 Z M 124.90625 -132.203125 L 153.4375 -132.203125 C 157.84375 -132.203125 160.046875 -134.410156 160.046875 -138.828125 L 160.046875 -216.0625 C 160.046875 -220.46875 157.84375 -222.671875 153.4375 -222.671875 L 145.78125 -222.671875 C 141.375 -222.671875 139.171875 -220.46875 139.171875 -216.0625 L 139.171875 -208.40625 C 139.171875 -204 136.96875 -201.796875 132.5625 -201.796875 L 124.90625 -201.796875 C 120.5 -201.796875 118.296875 -199.59375 118.296875 -195.1875 L 118.296875 -138.828125 C 118.296875 -134.410156 120.5 -132.203125 124.90625 -132.203125 Z M 124.90625 -132.203125 "/></g></g></g><g fill="#ab92db" fill-opacity="1"><g transform="translate(918.67742, 1360.832503)"><g><path d="M 132.5625 -201.796875 L 124.90625 -201.796875 C 120.5 -201.796875 118.296875 -199.59375 118.296875 -195.1875 L 118.296875 -27.484375 C 118.296875 -23.078125 120.5 -20.875 124.90625 -20.875 L 132.5625 -20.875 C 136.96875 -20.875 139.171875 -23.078125 139.171875 -27.484375 L 139.171875 -35.140625 C 139.171875 -39.546875 141.375 -41.75 145.78125 -41.75 L 153.4375 -41.75 C 157.84375 -41.75 160.046875 -43.953125 160.046875 -48.359375 L 160.046875 -216.0625 C 160.046875 -220.46875 157.84375 -222.671875 153.4375 -222.671875 L 145.78125 -222.671875 C 141.375 -222.671875 139.171875 -220.46875 139.171875 -216.0625 L 139.171875 -208.40625 C 139.171875 -204 136.96875 -201.796875 132.5625 -201.796875 Z M 24.359375 -6.609375 L 24.359375 -323.921875 C 24.359375 -328.328125 26.5625 -330.53125 30.96875 -330.53125 L 111.6875 -330.53125 C 116.09375 -330.53125 118.296875 -328.328125 118.296875 -323.921875 L 118.296875 -250.15625 C 118.296875 -245.75 120.5 -243.546875 124.90625 -243.546875 L 205.625 -243.546875 C 210.03125 -243.546875 212.234375 -241.34375 212.234375 -236.9375 L 212.234375 -229.28125 C 212.234375 -224.875 214.4375 -222.671875 218.84375 -222.671875 L 226.5 -222.671875 C 230.90625 -222.671875 233.109375 -220.46875 233.109375 -216.0625 L 233.109375 -208.40625 C 233.109375 -204 235.3125 -201.796875 239.71875 -201.796875 L 247.375 -201.796875 C 251.78125 -201.796875 253.984375 -199.59375 253.984375 -195.1875 L 253.984375 -27.828125 C 253.984375 -23.421875 251.78125 -21.21875 247.375 -21.21875 L 239.71875 -21.21875 C 235.3125 -21.21875 233.109375 -19.015625 233.109375 -14.609375 L 233.109375 -6.609375 C 233.109375 -2.203125 230.90625 0 226.5 0 L 30.96875 0 C 26.5625 0 24.359375 -2.203125 24.359375 -6.609375 Z M 24.359375 -6.609375 "/></g></g></g><path stroke-linecap="butt" transform="matrix(-0.75, 0, 0, -0.75, 1351.135573, 1216.457443)" fill="none" stroke-linejoin="miter" d="M -0.0015277 32.000552 L 1552.988189 32.000552 " stroke="#5e17eb" stroke-width="64" stroke-opacity="1" stroke-miterlimit="4"/><path fill="#ab92db" d="M 1014.714844 1009.628906 C 1011.242188 1007.746094 1010.097656 1004.609375 1010.097656 996.949219 C 1010.097656 985.617188 1008.167969 983.664062 996.976562 983.664062 C 988.792969 983.664062 986.570312 982.921875 984.472656 979.480469 C 983.199219 977.394531 982.871094 975.441406 982.871094 969.90625 C 982.863281 958.074219 981.832031 957.0625 969.132812 956.449219 C 959.519531 955.988281 957.84375 955.152344 956.445312 950.121094 C 955.308594 946.03125 955.351562 758.550781 956.488281 754.457031 C 957.792969 749.765625 960.871094 748.300781 969.414062 748.296875 C 980.953125 748.289062 982.867188 746.410156 982.867188 735.082031 C 982.867188 727.597656 983.996094 724.230469 987.082031 722.535156 C 988.066406 721.992188 992.75 721.339844 997.488281 721.085938 C 1009.179688 720.457031 1009.542969 720.089844 1010.101562 708.445312 C 1010.328125 703.722656 1010.972656 699.050781 1011.53125 698.066406 C 1014.027344 693.667969 1009.859375 693.851562 1105.414062 693.851562 C 1200.96875 693.851562 1196.800781 693.667969 1199.296875 698.066406 C 1199.855469 699.050781 1200.5 703.765625 1200.730469 708.539062 C 1201.128906 716.820312 1201.25 717.3125 1203.386719 719.148438 C 1205.390625 720.871094 1206.375 721.074219 1212.8125 721.074219 C 1225.59375 721.074219 1227.949219 723.398438 1227.980469 736.058594 C 1228.007812 746.523438 1229.933594 748.289062 1241.324219 748.296875 C 1249.964844 748.300781 1253.03125 749.75 1254.339844 754.457031 C 1254.910156 756.511719 1255.1875 788.484375 1255.1875 853.167969 C 1255.191406 942.65625 1255.101562 949.019531 1253.792969 951.628906 C 1251.839844 955.519531 1249.511719 956.417969 1241.339844 956.433594 C 1233.859375 956.445312 1230.304688 957.570312 1228.785156 960.402344 C 1228.332031 961.25 1227.960938 965.117188 1227.960938 969 C 1227.957031 976.925781 1226.542969 980.949219 1223.15625 982.640625 C 1222.015625 983.210938 1218.113281 983.644531 1214.105469 983.652344 C 1202.625 983.671875 1200.730469 985.558594 1200.730469 996.949219 C 1200.730469 1001.46875 1200.320312 1004.546875 1199.515625 1006.105469 C 1196.902344 1011.15625 1202.277344 1010.886719 1105.253906 1010.851562 C 1028.671875 1010.824219 1016.617188 1010.660156 1014.714844 1009.628906 Z M 1172.796875 967.730469 C 1174.445312 966.394531 1174.714844 965.386719 1174.964844 959.523438 C 1175.347656 950.652344 1176.523438 949.238281 1183.527344 949.238281 C 1193.117188 949.238281 1195.105469 947.351562 1195.148438 938.191406 C 1195.1875 930.203125 1197.304688 928.421875 1206.789062 928.421875 C 1216.042969 928.421875 1215.144531 936.609375 1215.144531 852.058594 C 1215.144531 766.667969 1216.253906 775.484375 1205.464844 774.894531 C 1196.34375 774.398438 1195.121094 773.316406 1195.121094 765.726562 C 1195.121094 756.339844 1193.355469 754.699219 1183.257812 754.699219 C 1176.714844 754.699219 1175.097656 752.933594 1175.097656 745.789062 C 1175.097656 738.832031 1174.03125 736.5 1170.359375 735.4375 C 1168.445312 734.882812 1145.917969 734.683594 1102.832031 734.84375 L 1038.175781 735.082031 L 1036.367188 736.890625 C 1034.871094 738.386719 1034.507812 739.769531 1034.261719 744.898438 C 1033.863281 753.234375 1032.585938 754.699219 1025.699219 754.699219 C 1016.085938 754.699219 1014.105469 756.59375 1014.105469 765.792969 C 1014.105469 773.238281 1012.730469 774.710938 1005.78125 774.710938 C 999.4375 774.710938 996.160156 775.832031 994.992188 778.390625 C 993.683594 781.257812 993.695312 922.992188 995 925.472656 C 996.371094 928.074219 997.210938 928.398438 1002.636719 928.410156 C 1011.917969 928.433594 1014.042969 930.25 1014.078125 938.191406 C 1014.121094 947.324219 1016.117188 949.238281 1025.585938 949.238281 C 1032.429688 949.238281 1034.128906 950.925781 1034.128906 957.734375 C 1034.128906 963.265625 1035.113281 966.730469 1037.121094 968.253906 C 1038.152344 969.035156 1052.925781 969.253906 1104.675781 969.253906 C 1168.585938 969.253906 1170.980469 969.199219 1172.796875 967.730469 Z M 1172.796875 967.730469 " fill-opacity="1" fill-rule="nonzero"/><g clip-path="url(#b84ad9be61)"><path fill="#5e17eb" d="M 1035.222656 947.859375 L 1035.222656 922.964844 L 985.621094 922.964844 L 984.121094 871.871094 L 933.019531 870.371094 L 933.019531 810.289062 L 995.914062 810.289062 L 995.914062 862.699219 L 1045.703125 862.699219 L 1045.703125 912.484375 L 1087.632812 912.484375 L 1087.632812 862.699219 L 1137.425781 862.699219 L 1137.425781 810.289062 L 1187.21875 810.289062 L 1187.21875 760.503906 L 1250.113281 760.503906 L 1250.113281 820.773438 L 1197.699219 820.773438 L 1197.699219 870.558594 L 1147.910156 870.558594 L 1147.910156 922.964844 L 1095.496094 922.964844 L 1095.496094 972.753906 L 1035.222656 972.753906 Z M 1035.222656 947.859375 " fill-opacity="1" fill-rule="nonzero"/></g><path fill="#ab92db" d="M 1014.714844 601.347656 C 1011.242188 599.460938 1010.097656 596.324219 1010.097656 588.667969 C 1010.097656 577.332031 1008.167969 575.378906 996.976562 575.378906 C 988.792969 575.378906 986.570312 574.636719 984.472656 571.195312 C 983.199219 569.109375 982.871094 567.15625 982.871094 561.621094 C 982.863281 549.789062 981.832031 548.777344 969.132812 548.164062 C 959.519531 547.703125 957.84375 546.867188 956.445312 541.835938 C 955.308594 537.746094 955.351562 350.269531 956.488281 346.171875 C 957.792969 341.480469 960.871094 340.015625 969.414062 340.011719 C 980.953125 340.007812 982.867188 338.125 982.867188 326.796875 C 982.867188 319.3125 983.996094 315.949219 987.082031 314.25 C 988.066406 313.707031 992.75 313.054688 997.488281 312.800781 C 1009.179688 312.171875 1009.542969 311.808594 1010.101562 300.160156 C 1010.328125 295.4375 1010.972656 290.765625 1011.53125 289.78125 C 1014.027344 285.382812 1009.859375 285.570312 1105.414062 285.570312 C 1200.96875 285.570312 1196.800781 285.382812 1199.296875 289.78125 C 1199.855469 290.765625 1200.5 295.480469 1200.730469 300.257812 C 1201.128906 308.535156 1201.25 309.027344 1203.386719 310.863281 C 1205.390625 312.585938 1206.375 312.789062 1212.8125 312.789062 C 1225.59375 312.789062 1227.949219 315.113281 1227.980469 327.773438 C 1228.007812 338.238281 1229.933594 340.007812 1241.324219 340.011719 C 1249.964844 340.015625 1253.03125 341.464844 1254.339844 346.171875 C 1254.910156 348.230469 1255.1875 380.199219 1255.1875 444.882812 C 1255.191406 534.371094 1255.101562 540.734375 1253.792969 543.34375 C 1251.839844 547.234375 1249.511719 548.132812 1241.339844 548.148438 C 1233.859375 548.160156 1230.304688 549.285156 1228.785156 552.117188 C 1228.332031 552.964844 1227.960938 556.835938 1227.960938 560.714844 C 1227.957031 568.640625 1226.542969 572.664062 1223.15625 574.355469 C 1222.015625 574.925781 1218.113281 575.359375 1214.105469 575.367188 C 1202.625 575.386719 1200.730469 577.273438 1200.730469 588.667969 C 1200.730469 593.183594 1200.320312 596.261719 1199.515625 597.820312 C 1196.902344 602.871094 1202.277344 602.601562 1105.253906 602.566406 C 1028.671875 602.539062 1016.617188 602.375 1014.714844 601.347656 Z M 1172.796875 559.445312 C 1174.445312 558.109375 1174.714844 557.101562 1174.964844 551.238281 C 1175.347656 542.367188 1176.523438 540.953125 1183.527344 540.953125 C 1193.117188 540.953125 1195.105469 539.066406 1195.148438 529.910156 C 1195.1875 521.917969 1197.304688 520.140625 1206.789062 520.140625 C 1216.042969 520.140625 1215.144531 528.328125 1215.144531 443.773438 C 1215.144531 358.382812 1216.253906 367.199219 1205.464844 366.613281 C 1196.34375 366.113281 1195.121094 365.03125 1195.121094 357.441406 C 1195.121094 348.058594 1193.355469 346.414062 1183.257812 346.414062 C 1176.714844 346.414062 1175.097656 344.648438 1175.097656 337.503906 C 1175.097656 330.546875 1174.03125 328.214844 1170.359375 327.152344 C 1168.445312 326.597656 1145.917969 326.398438 1102.832031 326.558594 L 1038.175781 326.796875 L 1036.367188 328.605469 C 1034.871094 330.105469 1034.507812 331.484375 1034.261719 336.613281 C 1033.863281 344.949219 1032.585938 346.414062 1025.699219 346.414062 C 1016.085938 346.414062 1014.105469 348.308594 1014.105469 357.507812 C 1014.105469 364.953125 1012.730469 366.425781 1005.78125 366.425781 C 999.4375 366.425781 996.160156 367.546875 994.992188 370.109375 C 993.683594 372.972656 993.695312 514.707031 995 517.191406 C 996.371094 519.789062 997.210938 520.113281 1002.636719 520.125 C 1011.917969 520.148438 1014.042969 521.964844 1014.078125 529.910156 C 1014.121094 539.039062 1016.117188 540.953125 1025.585938 540.953125 C 1032.429688 540.953125 1034.128906 542.640625 1034.128906 549.449219 C 1034.128906 554.980469 1035.113281 558.445312 1037.121094 559.96875 C 1038.152344 560.75 1052.925781 560.96875 1104.675781 560.96875 C 1168.585938 560.96875 1170.980469 560.914062 1172.796875 559.445312 Z M 1172.796875 559.445312 " fill-opacity="1" fill-rule="nonzero"/><g transform="matrix(1, 0, 0, 1, 167, 126)"><g clip-path="url(#b7bb3af47d)"><g fill="#ab92db" fill-opacity="1"><g transform="translate(0.439893, 423.426009)"><g><path d="M 94.28125 -6.609375 L 94.28125 -298.5 C 94.28125 -302.90625 92.078125 -305.109375 87.671875 -305.109375 L 79.671875 -305.109375 C 75.265625 -305.109375 73.0625 -302.90625 73.0625 -298.5 L 73.0625 -259.1875 C 73.0625 -254.78125 70.859375 -252.578125 66.453125 -252.578125 L 58.796875 -252.578125 C 54.390625 -252.578125 52.1875 -250.375 52.1875 -245.96875 L 52.1875 -238.3125 C 52.1875 -233.90625 49.984375 -231.703125 45.578125 -231.703125 L 17.046875 -231.703125 C 12.640625 -231.703125 10.4375 -233.90625 10.4375 -238.3125 L 10.4375 -319.03125 C 10.4375 -323.4375 12.640625 -325.640625 17.046875 -325.640625 L 265.453125 -325.640625 C 269.859375 -325.640625 272.0625 -323.4375 272.0625 -319.03125 L 272.0625 -238.3125 C 272.0625 -233.90625 269.859375 -231.703125 265.453125 -231.703125 L 236.921875 -231.703125 C 232.515625 -231.703125 230.3125 -233.90625 230.3125 -238.3125 L 230.3125 -245.96875 C 230.3125 -250.375 228.109375 -252.578125 223.703125 -252.578125 L 216.046875 -252.578125 C 211.640625 -252.578125 209.4375 -254.78125 209.4375 -259.1875 L 209.4375 -298.5 C 209.4375 -302.90625 207.234375 -305.109375 202.828125 -305.109375 L 194.828125 -305.109375 C 190.421875 -305.109375 188.21875 -302.90625 188.21875 -298.5 L 188.21875 -6.609375 C 188.21875 -2.203125 186.015625 0 181.609375 0 L 100.890625 0 C 96.484375 0 94.28125 -2.203125 94.28125 -6.609375 Z M 94.28125 -6.609375 "/></g></g></g><g fill="#ab92db" fill-opacity="1"><g transform="translate(251.63252, 423.426009)"><g><path d="M 66.109375 -6.609375 L 66.109375 -14.265625 C 66.109375 -18.671875 63.898438 -20.875 59.484375 -20.875 L 51.84375 -20.875 C 47.4375 -20.875 45.234375 -23.078125 45.234375 -27.484375 L 45.234375 -35.140625 C 45.234375 -39.546875 43.03125 -41.75 38.625 -41.75 L 30.96875 -41.75 C 26.5625 -41.75 24.359375 -43.953125 24.359375 -48.359375 L 24.359375 -195.171875 C 24.359375 -199.578125 26.5625 -201.78125 30.96875 -201.78125 L 38.625 -201.78125 C 43.03125 -201.78125 45.234375 -203.984375 45.234375 -208.390625 L 45.234375 -216.046875 C 45.234375 -220.453125 47.4375 -222.65625 51.84375 -222.65625 L 59.484375 -222.65625 C 63.898438 -222.65625 66.109375 -224.859375 66.109375 -229.265625 L 66.109375 -236.921875 C 66.109375 -241.328125 68.3125 -243.53125 72.71875 -243.53125 L 205.609375 -243.53125 C 210.015625 -243.53125 212.21875 -241.328125 212.21875 -236.921875 L 212.21875 -229.265625 C 212.21875 -224.859375 214.421875 -222.65625 218.828125 -222.65625 L 226.484375 -222.65625 C 230.890625 -222.65625 233.09375 -220.453125 233.09375 -216.046875 L 233.09375 -208.390625 C 233.09375 -203.984375 235.296875 -201.78125 239.703125 -201.78125 L 247.359375 -201.78125 C 251.765625 -201.78125 253.96875 -199.578125 253.96875 -195.171875 L 253.96875 -48.359375 C 253.96875 -43.953125 251.765625 -41.75 247.359375 -41.75 L 239.703125 -41.75 C 235.296875 -41.75 233.09375 -39.546875 233.09375 -35.140625 L 233.09375 -27.484375 C 233.09375 -23.078125 230.890625 -20.875 226.484375 -20.875 L 218.828125 -20.875 C 214.421875 -20.875 212.21875 -18.671875 212.21875 -14.265625 L 212.21875 -6.609375 C 212.21875 -2.203125 210.015625 0 205.609375 0 L 72.71875 0 C 68.3125 0 66.109375 -2.203125 66.109375 -6.609375 Z M 145.765625 -41.75 L 153.421875 -41.75 C 157.828125 -41.75 160.03125 -43.953125 160.03125 -48.359375 L 160.03125 -216.046875 C 160.03125 -220.453125 157.828125 -222.65625 153.421875 -222.65625 L 145.765625 -222.65625 C 141.359375 -222.65625 139.15625 -220.453125 139.15625 -216.046875 L 139.15625 -208.390625 C 139.15625 -203.984375 136.953125 -201.78125 132.546875 -201.78125 L 124.890625 -201.78125 C 120.484375 -201.78125 118.28125 -199.578125 118.28125 -195.171875 L 118.28125 -27.484375 C 118.28125 -23.078125 120.484375 -20.875 124.890625 -20.875 L 132.546875 -20.875 C 136.953125 -20.875 139.15625 -23.078125 139.15625 -27.484375 L 139.15625 -35.140625 C 139.15625 -39.546875 141.359375 -41.75 145.765625 -41.75 Z M 145.765625 -41.75 "/></g></g></g></g></g></svg>