<?xml version="1.0" encoding="UTF-8" standalone="no"?>
<!-- Created with Inkscape (http://www.inkscape.org/) -->

<svg
   width="200mm"
   height="100mm"
   viewBox="0 0 755.90552 377.95277"
   version="1.1"
   id="svg1"
   inkscape:version="1.4.4 (dcaf3e7d9e, 2026-05-05)"
   sodipodi:docname="ToDoWebLOGO2.svg.svg"
   xmlns:inkscape="http://www.inkscape.org/namespaces/inkscape"
   xmlns:sodipodi="http://sodipodi.sourceforge.net/DTD/sodipodi-0.dtd"
   xmlns="http://www.w3.org/2000/svg"
   xmlns:svg="http://www.w3.org/2000/svg">
  <sodipodi:namedview
     id="namedview1"
     pagecolor="#ffffff"
     bordercolor="#000000"
     borderopacity="0.25"
     inkscape:showpageshadow="2"
     inkscape:pageopacity="0.0"
     inkscape:pagecheckerboard="0"
     inkscape:deskcolor="#d1d1d1"
     inkscape:document-units="mm"
     showgrid="true"
     inkscape:zoom="0.42633037"
     inkscape:cx="605.16448"
     inkscape:cy="290.85425"
     inkscape:window-width="983"
     inkscape:window-height="831"
     inkscape:window-x="0"
     inkscape:window-y="0"
     inkscape:window-maximized="0"
     inkscape:current-layer="layer1">
    <inkscape:grid
       id="grid1"
       units="mm"
       originx="0"
       originy="0"
       spacingx="3.7795277"
       spacingy="3.7795276"
       empcolor="#0099e5"
       empopacity="0.30196078"
       color="#0099e5"
       opacity="0.14901961"
       empspacing="5"
       enabled="true"
       visible="true" />
    <inkscape:page
       x="0"
       y="0"
       width="755.90552"
       height="377.95276"
       id="page2"
       margin="0"
       bleed="0" />
  </sodipodi:namedview>
  <defs
     id="defs1">
    <clipPath
       id="5bc087b970">
      <rect
         x="0"
         width="559"
         y="0"
         height="512"
         id="rect1" />
    </clipPath>
    <clipPath
       id="b84ad9be61">
      <path
         d="m 933,760.50391 h 317.1914 v 212.25 H 933 Z m 0,0"
         clip-rule="nonzero"
         id="path1" />
    </clipPath>
  </defs>
  <g
     inkscape:label="Layer 1"
     inkscape:groupmode="layer"
     id="layer1">
    <g
       transform="matrix(0.51945865,0,0,0.51945869,353.80292,53.455313)"
       id="g9"
       style="fill:#ab92db;fill-opacity:1">
      <g
         clip-path="url(#5bc087b970)"
         id="g8"
         style="fill:#ab92db;fill-opacity:1">
        <g
           fill="#5e17eb"
           fill-opacity="1"
           id="g4"
           style="fill:#ab92db;fill-opacity:1">
          <g
             transform="translate(0.968144,423.70933)"
             id="g3"
             style="fill:#ab92db;fill-opacity:1">
            <g
               id="g2"
               style="fill:#ab92db;fill-opacity:1">
              <path
                 d="M 24.359375,-6.609375 V -319.03125 c 0,-4.40625 2.203125,-6.60937 6.609375,-6.60937 h 174.64062 c 4.40625,0 6.60938,2.20312 6.60938,6.60937 v 7.65625 c 0,4.40625 2.20312,6.60938 6.60937,6.60938 h 7.65625 c 4.40625,0 6.60938,2.20312 6.60938,6.60937 V -290.5 c 0,4.40625 2.20312,6.60938 6.60937,6.60938 h 7.65625 c 4.40625,0 6.60938,2.20312 6.60938,6.60937 v 228.921875 c 0,4.40625 -2.20313,6.609375 -6.60938,6.609375 h -7.65625 c -4.40625,0 -6.60937,2.203125 -6.60937,6.609375 v 7.65625 c 0,4.40625 -2.20313,6.609375 -6.60938,6.609375 h -7.65625 c -4.40625,0 -6.60937,2.203125 -6.60937,6.609375 v 7.65625 C 212.21875,-2.203125 210.01562,0 205.60937,0 H 30.96875 C 26.5625,0 24.359375,-2.203125 24.359375,-6.609375 Z M 118.28125,-298.15625 v 270.671875 c 0,4.40625 2.20313,6.609375 6.60938,6.609375 h 7.65624 c 4.40625,0 6.60938,-2.203125 6.60938,-6.609375 v -7.65625 c 0,-4.40625 2.20312,-6.609375 6.60937,-6.609375 h 7.65625 c 4.40625,0 6.60938,-2.203125 6.60938,-6.609375 V -277.28125 c 0,-4.40625 -2.20313,-6.60937 -6.60938,-6.60937 h -7.65625 c -4.40625,0 -6.60937,-2.20313 -6.60937,-6.60938 v -7.65625 c 0,-4.40625 -2.20313,-6.60937 -6.60938,-6.60937 h -7.65624 c -4.40625,0 -6.60938,2.20312 -6.60938,6.60937 z m 0,0"
                 id="path2"
                 style="fill:#ab92db;fill-opacity:1" />
            </g>
          </g>
        </g>
        <g
           fill="#5e17eb"
           fill-opacity="1"
           id="g7"
           style="fill:#ab92db;fill-opacity:1">
          <g
             transform="translate(279.29802,423.70933)"
             id="g6"
             style="fill:#ab92db;fill-opacity:1">
            <g
               id="g5"
               style="fill:#ab92db;fill-opacity:1">
              <path
                 d="m 66.109375,-6.609375 v -7.65625 c 0,-4.40625 -2.210937,-6.609375 -6.625,-6.609375 H 51.84375 c -4.40625,0 -6.609375,-2.203125 -6.609375,-6.609375 v -7.65625 c 0,-4.40625 -2.203125,-6.609375 -6.609375,-6.609375 h -7.65625 c -4.40625,0 -6.609375,-2.203125 -6.609375,-6.609375 V -195.17187 c 0,-4.40625 2.203125,-6.60938 6.609375,-6.60938 H 38.625 c 4.40625,0 6.609375,-2.20312 6.609375,-6.60937 v -7.65625 c 0,-4.40625 2.203125,-6.60938 6.609375,-6.60938 h 7.640625 c 4.414063,0 6.625,-2.20312 6.625,-6.60937 v -7.65625 c 0,-4.40625 2.203125,-6.60938 6.609375,-6.60938 h 132.89062 c 4.40625,0 6.60938,2.20313 6.60938,6.60938 v 7.65625 c 0,4.40625 2.20312,6.60937 6.60937,6.60937 h 7.65625 c 4.40625,0 6.60938,2.20313 6.60938,6.60938 v 7.65625 c 0,4.40625 2.20312,6.60937 6.60937,6.60937 h 7.65625 c 4.40625,0 6.60938,2.20313 6.60938,6.60938 v 146.812495 c 0,4.40625 -2.20313,6.609375 -6.60938,6.609375 h -7.65625 c -4.40625,0 -6.60937,2.203125 -6.60937,6.609375 v 7.65625 c 0,4.40625 -2.20313,6.609375 -6.60938,6.609375 h -7.65625 c -4.40625,0 -6.60937,2.203125 -6.60937,6.609375 v 7.65625 C 212.21875,-2.203125 210.01562,0 205.60937,0 H 72.71875 C 68.3125,0 66.109375,-2.203125 66.109375,-6.609375 Z M 145.76562,-41.75 h 7.65625 c 4.40625,0 6.60938,-2.203125 6.60938,-6.609375 V -216.04687 c 0,-4.40625 -2.20313,-6.60938 -6.60938,-6.60938 h -7.65625 c -4.40625,0 -6.60937,2.20313 -6.60937,6.60938 v 7.65625 c 0,4.40625 -2.20313,6.60937 -6.60938,6.60937 h -7.65624 c -4.40625,0 -6.60938,2.20313 -6.60938,6.60938 v 167.687495 c 0,4.40625 2.20313,6.609375 6.60938,6.609375 h 7.65624 c 4.40625,0 6.60938,-2.203125 6.60938,-6.609375 v -7.65625 c 0,-4.40625 2.20312,-6.609375 6.60937,-6.609375 z m 0,0"
                 id="path4"
                 style="fill:#ab92db;fill-opacity:1" />
            </g>
          </g>
        </g>
      </g>
    </g>
    <g
       fill="#ab92db"
       fill-opacity="1"
       id="g12"
       transform="matrix(0.51945865,0,0,0.51945869,-100.13105,-432.67499)"
       style="fill:#5e17eb;fill-opacity:1">
      <g
         transform="translate(231.88951,1360.8325)"
         id="g11"
         style="fill:#5e17eb;fill-opacity:1">
        <g
           id="g10"
           style="fill:#5e17eb;fill-opacity:1">
          <path
             d="m 45.234375,-6.609375 v -7.65625 c 0,-4.40625 -2.203125,-6.609375 -6.609375,-6.609375 h -7.65625 c -4.40625,0 -6.609375,-2.203125 -6.609375,-6.609375 V -319.04687 c 0,-4.40625 2.203125,-6.60938 6.609375,-6.60938 h 80.71875 c 4.40625,0 6.60938,2.20313 6.60938,6.60938 v 291.562495 c 0,4.40625 2.20312,6.609375 6.60937,6.609375 H 135 c 4.40625,0 6.60937,-2.203125 6.60937,-6.609375 v -7.65625 c 0,-4.40625 2.20313,-6.609375 6.60938,-6.609375 h 7.65625 c 4.40625,0 6.60937,-2.203125 6.60937,-6.609375 V -319.04687 c 0,-4.40625 2.20313,-6.60938 6.60938,-6.60938 h 80.71875 c 4.40625,0 6.60937,2.20313 6.60937,6.60938 v 291.562495 c 0,4.40625 2.20313,6.609375 6.60938,6.609375 H 273.125 c 4.40625,0 6.60937,-2.203125 6.60937,-6.609375 v -7.65625 c 0,-4.40625 2.20313,-6.609375 6.60938,-6.609375 H 294 c 4.40625,0 6.60937,-2.203125 6.60937,-6.609375 V -319.04687 c 0,-4.40625 2.20313,-6.60938 6.60938,-6.60938 h 80.71875 c 4.40625,0 6.60937,2.20313 6.60937,6.60938 v 228.937495 c 0,4.40625 -2.20312,6.609375 -6.60937,6.609375 h -7.65625 c -4.40625,0 -6.60938,2.203125 -6.60938,6.609375 v 7.65625 c 0,4.40625 -2.20312,6.609375 -6.60937,6.609375 h -18.09375 c -4.40625,0 -6.60938,2.203125 -6.60938,6.609375 v 7.65625 c 0,4.40625 -2.20312,6.609375 -6.60937,6.609375 h -7.65625 c -4.40625,0 -6.60938,2.203125 -6.60938,6.609375 v 7.65625 c 0,4.40625 -2.20312,6.609375 -6.60937,6.609375 h -3.48438 c -4.40625,0 -6.60937,2.203125 -6.60937,6.609375 v 7.65625 C 304.78125,-2.203125 302.57812,0 298.17187,0 h -66.45312 c -4.40625,0 -6.60938,-2.203125 -6.60938,-6.609375 v -7.65625 c 0,-4.40625 -2.20312,-6.609375 -6.60937,-6.609375 h -7.65625 c -4.40625,0 -6.60938,-2.203125 -6.60938,-6.609375 v -7.65625 c 0,-4.40625 -2.20312,-6.609375 -6.60937,-6.609375 h -7.65625 c -4.40625,0 -6.60938,2.203125 -6.60938,6.609375 v 7.65625 c 0,4.40625 -2.20312,6.609375 -6.60937,6.609375 h -7.65625 c -4.40625,0 -6.60938,2.203125 -6.60938,6.609375 v 7.65625 C 162.48437,-2.203125 160.28125,0 155.875,0 H 51.84375 C 47.4375,0 45.234375,-2.203125 45.234375,-6.609375 Z m 0,0"
             id="path9"
             style="fill:#5e17eb;fill-opacity:1" />
        </g>
      </g>
    </g>
    <g
       fill="#ab92db"
       fill-opacity="1"
       id="g15"
       transform="matrix(0.51945865,0,0,0.51945869,-111.51452,-432.29045)"
       style="fill:#5e17eb;fill-opacity:1">
      <g
         transform="translate(641.78942,1358.1077)"
         id="g14"
         style="fill:#5e17eb;fill-opacity:1">
        <g
           id="g13"
           style="fill:#5e17eb;fill-opacity:1">
          <path
             d="m 66.109375,-6.609375 v -7.65625 c 0,-4.40625 -2.203125,-6.609375 -6.609375,-6.609375 h -7.65625 c -4.40625,0 -6.609375,-2.203125 -6.609375,-6.609375 v -7.65625 c 0,-4.40625 -2.203125,-6.609375 -6.609375,-6.609375 h -7.65625 c -4.40625,0 -6.609375,-2.203125 -6.609375,-6.609375 V -195.1875 c 0,-4.40625 2.203125,-6.60937 6.609375,-6.60937 H 38.625 c 4.40625,0 6.609375,-2.20313 6.609375,-6.60938 v -7.65625 c 0,-4.40625 2.203125,-6.60937 6.609375,-6.60937 H 59.5 c 4.40625,0 6.609375,-2.20313 6.609375,-6.60938 v -7.65625 c 0,-4.40625 2.203125,-6.60937 6.609375,-6.60937 H 205.625 c 4.40625,0 6.60937,2.20312 6.60937,6.60937 v 7.65625 c 0,4.40625 2.20313,6.60938 6.60938,6.60938 H 226.5 c 4.40625,0 6.60937,2.20312 6.60937,6.60937 v 7.65625 c 0,4.40625 2.20313,6.60938 6.60938,6.60938 h 7.65625 c 4.40625,0 6.60937,2.20312 6.60937,6.60937 v 56.35938 c 0,4.41796 -2.20312,6.625 -6.60937,6.625 h -7.65625 c -4.40625,0 -6.60938,2.20312 -6.60938,6.60937 v 7.64062 c 0,4.41797 -2.20312,6.625 -6.60937,6.625 H 124.90625 c -4.40625,0 -6.60937,2.20313 -6.60937,6.60938 v 77.234375 c 0,4.40625 2.20312,6.609375 6.60937,6.609375 h 7.65625 c 4.40625,0 6.60937,-2.203125 6.60937,-6.609375 v -7.65625 c 0,-4.40625 2.20313,-6.609375 6.60938,-6.609375 h 7.65625 c 4.40625,0 6.60937,-2.203125 6.60937,-6.609375 V -72.375 c 0,-4.40625 2.20313,-6.609375 6.60938,-6.609375 H 247.375 c 4.40625,0 6.60937,2.203125 6.60937,6.609375 v 24.015625 c 0,4.40625 -2.20312,6.609375 -6.60937,6.609375 h -7.65625 c -4.40625,0 -6.60938,2.203125 -6.60938,6.609375 v 7.65625 c 0,4.40625 -2.20312,6.609375 -6.60937,6.609375 h -7.65625 c -4.40625,0 -6.60938,2.203125 -6.60938,6.609375 v 7.65625 C 212.23437,-2.203125 210.03125,0 205.625,0 H 72.71875 C 68.3125,0 66.109375,-2.203125 66.109375,-6.609375 Z M 124.90625,-132.20312 h 28.53125 c 4.40625,0 6.60937,-2.20704 6.60937,-6.625 v -77.23438 c 0,-4.40625 -2.20312,-6.60937 -6.60937,-6.60937 h -7.65625 c -4.40625,0 -6.60938,2.20312 -6.60938,6.60937 v 7.65625 c 0,4.40625 -2.20312,6.60938 -6.60937,6.60938 h -7.65625 c -4.40625,0 -6.60937,2.20312 -6.60937,6.60937 v 56.35938 c 0,4.41796 2.20312,6.625 6.60937,6.625 z m 0,0"
             id="path12"
             style="fill:#5e17eb;fill-opacity:1" />
        </g>
      </g>
    </g>
    <path
       stroke-linecap="butt"
       fill="none"
       stroke-linejoin="miter"
       d="M 684.16574,217.9329 H 354.49535"
       stroke="#5e17eb"
       stroke-width="18.4053"
       stroke-opacity="1"
       stroke-miterlimit="4"
       id="path18" />
    <path
       fill="#ab92db"
       d="m 639.89265,177.5549 c -1.25251,-0.67909 -1.66533,-1.81045 -1.66533,-4.57331 0,-4.08725 -0.696,-4.7917 -4.73252,-4.7917 -2.95167,0 -3.75333,-0.26769 -4.50991,-1.50894 -0.45931,-0.75236 -0.57765,-1.45681 -0.57765,-3.45324 -0.003,-4.26758 -0.37477,-4.63248 -4.95513,-4.85369 -3.46732,-0.16624 -4.07175,-0.46775 -4.57614,-2.28243 -0.40999,-1.47512 -0.39449,-69.095675 0.0155,-70.572217 0.47057,-1.692101 1.5808,-2.220428 4.66208,-2.221838 4.16191,-0.0027 4.85227,-0.680505 4.85227,-4.766354 0,-2.69946 0.40718,-3.913948 1.52021,-4.525398 0.35505,-0.195836 2.04434,-0.431128 3.75334,-0.522716 4.21686,-0.226826 4.3479,-0.359263 4.54936,-4.559225 0.0817,-1.703368 0.3142,-3.388413 0.51566,-3.743465 0.9003,-1.586436 -0.60301,-1.520218 33.8617,-1.520218 34.46472,0 32.96142,-0.06628 33.8617,1.520218 0.20148,0.355052 0.43395,2.055601 0.51706,3.777274 0.14372,2.986893 0.1874,3.164414 0.95808,3.826605 0.72276,0.621326 1.07781,0.694591 3.39969,0.694591 4.60994,0 5.45951,0.838294 5.47079,5.404567 0.0103,3.774473 0.70446,4.411293 4.81282,4.414121 3.11651,8.92e-4 4.2225,0.524108 4.69449,2.221838 0.2057,0.741094 0.30573,12.27301 0.30573,35.603117 8.9e-4,32.27668 -0.031,34.5718 -0.50297,35.51295 -0.70447,1.40326 -1.54417,1.72732 -4.4916,1.73296 -2.69807,0.004 -3.98017,0.40998 -4.52825,1.43144 -0.16341,0.30573 -0.29726,1.70055 -0.29726,3.10101 -8.9e-4,2.85868 -0.51144,4.30985 -1.73296,4.91991 -0.4114,0.2057 -1.81891,0.36209 -3.26445,0.3649 -4.14077,0.007 -4.82411,0.68756 -4.82411,4.79593 0,1.63011 -0.14792,2.74033 -0.43816,3.30248 -0.94256,1.82171 0.9961,1.7245 -33.99836,1.71182 -27.62165,-0.0103 -31.96953,-0.0691 -32.65568,-0.44099 z m 57.01711,-15.11194 c 0.59456,-0.48186 0.69178,-0.84535 0.78195,-2.96012 0.13807,-3.19963 0.56215,-3.70966 3.08832,-3.70966 3.45888,0 4.17601,-0.6805 4.19151,-3.9844 0.0141,-2.8812 0.7777,-3.52367 4.19854,-3.52367 3.3377,0 3.01365,2.95308 3.01365,-27.54275 0,-30.798741 0.40014,-27.618831 -3.49127,-27.831572 -3.28981,-0.178939 -3.73079,-0.56921 -3.73079,-3.306717 0,-3.385594 -0.63682,-3.977347 -4.27884,-3.977347 -2.35993,0 -2.94321,-0.636829 -2.94321,-3.21371 0,-2.509271 -0.38464,-3.350393 -1.70901,-3.733607 -0.69036,-0.200082 -8.81554,-0.27193 -24.35581,-0.214159 l -23.32024,0.086 -0.65232,0.652334 c -0.53962,0.539603 -0.67065,1.038367 -0.7594,2.888248 -0.14372,3.006625 -0.60442,3.534953 -3.08833,3.534953 -3.46732,0 -4.18164,0.683333 -4.18164,4.001308 0,2.685374 -0.49593,3.216538 -3.00238,3.216538 -2.28808,0 -3.47016,0.404356 -3.89142,1.327192 -0.47197,1.034138 -0.46775,52.154969 0.003,53.049629 0.49453,0.93833 0.79745,1.05527 2.75442,1.0595 3.34756,0.008 4.114,0.6636 4.12669,3.5279 0.0155,3.29403 0.73545,3.9844 4.15064,3.9844 2.46841,0 3.08128,0.60863 3.08128,3.06437 0,1.99501 0.35504,3.2447 1.07922,3.79418 0.37195,0.28178 5.70044,0.36068 24.36566,0.36068 23.05115,0 23.91481,-0.0197 24.56996,-0.54947 z m 0,0"
       fill-opacity="1"
       fill-rule="nonzero"
       id="path19"
       style="stroke-width:0.36068" />
    <g
       clip-path="url(#b84ad9be61)"
       id="g20"
       transform="matrix(0.31202682,0,0,0.31202684,314.06975,-145.25659)">
      <path
         fill="#5e17eb"
         d="m 1035.2227,947.85937 v -24.89453 h -49.60161 l -1.5,-51.09375 -51.10156,-1.5 v -60.08203 h 62.89453 v 52.41016 h 49.78904 v 49.78515 h 41.9297 v -49.78515 h 49.793 v -52.41016 h 49.793 v -49.78515 h 62.8945 v 60.26953 h -52.4141 v 49.78515 h -49.789 v 52.40625 h -52.4141 v 49.78907 h -60.2734 z m 0,0"
         fill-opacity="1"
         fill-rule="nonzero"
         id="path20" />
    </g>
  </g>
</svg>
